<?xml version="1.0" encoding="UTF-8" standalone="no"?><!-- Generator: Gravit.io --><svg xmlns="http://www.w3.org/2000/svg" xmlns:xlink="http://www.w3.org/1999/xlink" style="isolation:isolate" viewBox="0 0 470 127" width="470pt" height="127pt"><defs><clipPath id="_clipPath_RFausyczczMTUmJHES7xqB6t9bWCOFwA"><rect width="470" height="127"/></clipPath></defs><g clip-path="url(#_clipPath_RFausyczczMTUmJHES7xqB6t9bWCOFwA)"><path d=" M 59.102 50.028 L 59.102 50.028 L 59.102 50.028 Q 58.906 50.711 58.369 51.957 L 58.369 51.957 L 58.369 51.957 Q 57.832 53.202 57.124 54.764 L 57.124 54.764 L 57.124 54.764 Q 56.416 56.327 55.61 58.109 L 55.61 58.109 L 55.61 58.109 Q 54.805 59.891 54.023 61.698 L 54.023 61.698 L 54.023 61.698 Q 53.73 62.381 53.486 62.699 L 53.486 62.699 L 53.486 62.699 Q 53.242 63.016 52.705 63.163 L 52.705 63.163 L 52.705 63.163 Q 52.168 63.309 51.216 63.333 L 51.216 63.333 L 51.216 63.333 Q 50.264 63.358 48.555 63.407 L 48.555 63.407 L 41.768 63.553 L 40.4 78.495 L 65.449 78.495 L 65.449 80.399 L 65.449 80.399 Q 65.352 80.497 64.619 81.693 L 64.619 81.693 L 64.619 81.693 Q 63.887 82.889 62.91 84.549 L 62.91 84.549 L 62.91 84.549 Q 61.934 86.209 60.859 87.894 L 60.859 87.894 L 60.859 87.894 Q 59.785 89.579 59.053 90.604 L 59.053 90.604 L 59.053 90.604 Q 58.564 91.483 57.93 91.996 L 57.93 91.996 L 57.93 91.996 Q 57.295 92.508 56.538 92.752 L 56.538 92.752 L 56.538 92.752 Q 55.781 92.997 54.878 93.045 L 54.878 93.045 L 54.878 93.045 Q 53.975 93.094 52.9 93.094 L 52.9 93.094 L 52.9 93.094 Q 48.506 93.094 43.745 92.899 L 43.745 92.899 L 43.745 92.899 Q 38.984 92.704 34.248 92.411 L 34.248 92.411 L 34.248 92.411 Q 29.512 92.118 24.995 91.751 L 24.995 91.751 L 24.995 91.751 Q 20.479 91.385 16.621 90.995 L 16.621 90.995 L 16.621 90.995 Q 16.279 90.946 16.011 90.604 L 16.011 90.604 L 16.011 90.604 Q 15.742 90.262 15.742 89.823 L 15.742 89.823 L 15.742 89.823 Q 15.547 89.823 16.011 88.993 L 16.011 88.993 L 16.011 88.993 Q 16.475 88.163 17.305 86.844 L 17.305 86.844 L 17.305 86.844 Q 18.135 85.526 19.136 83.841 L 19.136 83.841 L 19.136 83.841 Q 20.137 82.157 21.064 80.448 L 21.064 80.448 L 21.846 69.461 L 21.846 69.461 Q 22.041 66.678 22.163 65.311 L 22.163 65.311 L 22.163 65.311 Q 22.285 63.944 22.285 63.846 L 22.285 63.846 L 22.285 63.846 Q 19.355 63.797 17.915 63.553 L 17.915 63.553 L 17.915 63.553 Q 16.475 63.309 16.475 62.479 L 16.475 62.479 L 16.475 62.479 Q 16.475 62.088 17.183 61.014 L 17.183 61.014 L 17.183 61.014 Q 17.891 59.94 18.916 58.548 L 18.916 58.548 L 18.916 58.548 Q 19.941 57.157 21.089 55.643 L 21.089 55.643 L 21.089 55.643 Q 22.236 54.129 23.115 52.86 L 23.115 52.86 L 24.336 36.258 L 24.189 36.258 L 24.189 36.258 Q 23.115 36.307 22.236 36.332 L 22.236 36.332 L 22.236 36.332 Q 21.357 36.356 20.625 36.356 L 20.625 36.356 L 20.625 36.356 Q 18.281 36.356 17.28 36.087 L 17.28 36.087 L 17.28 36.087 Q 16.279 35.819 16.279 35.086 L 16.279 35.086 L 16.279 35.086 Q 16.279 34.745 16.865 33.67 L 16.865 33.67 L 16.865 33.67 Q 17.451 32.596 18.33 31.205 L 18.33 31.205 L 18.33 31.205 Q 19.209 29.813 20.186 28.275 L 20.186 28.275 L 20.186 28.275 Q 21.162 26.737 21.943 25.418 L 21.943 25.418 L 24.873 20.438 L 45.283 20.438 L 69.355 18.68 L 69.355 18.68 Q 69.404 18.68 69.624 18.705 L 69.624 18.705 L 69.624 18.705 Q 69.844 18.729 70.088 18.851 L 70.088 18.851 L 70.088 18.851 Q 70.332 18.973 70.552 19.266 L 70.552 19.266 L 70.552 19.266 Q 70.771 19.559 70.771 20.096 L 70.771 20.096 L 70.039 22.635 L 70.039 22.635 Q 69.697 23.709 69.209 24.906 L 69.209 24.906 L 69.209 24.906 Q 68.721 26.102 68.135 27.372 L 68.135 27.372 L 65.986 33.036 L 65.986 33.036 Q 65.645 33.866 65.205 34.305 L 65.205 34.305 L 65.205 34.305 Q 64.766 34.745 63.35 34.793 L 63.35 34.793 L 63.35 34.793 Q 59.639 34.891 55.073 35.111 L 55.073 35.111 L 55.073 35.111 Q 50.508 35.331 44.6 35.526 L 44.6 35.526 L 44.6 35.526 Q 44.404 36.209 44.404 36.625 L 44.404 36.625 L 44.404 36.625 Q 44.404 37.04 44.307 38.211 L 44.307 38.211 L 44.063 40.458 L 44.063 40.458 Q 43.965 42.02 43.77 43.827 L 43.77 43.827 L 43.77 43.827 Q 43.574 45.633 43.281 48.27 L 43.281 48.27 L 43.281 48.27 Q 45.771 48.172 48.14 48.075 L 48.14 48.075 L 48.14 48.075 Q 50.508 47.977 52.461 47.904 L 52.461 47.904 L 52.461 47.904 Q 54.414 47.831 55.854 47.782 L 55.854 47.782 L 55.854 47.782 Q 57.295 47.733 57.881 47.733 L 57.881 47.733 L 57.881 47.733 Q 58.271 47.733 58.76 48.026 L 58.76 48.026 L 58.76 48.026 Q 59.248 48.319 59.248 49.149 L 59.248 49.149 L 59.248 49.149 Q 59.248 49.54 59.102 50.028 Z  M 154.414 88.993 L 142.402 92.313 L 142.402 92.313 Q 141.865 92.459 140.986 92.777 L 140.986 92.777 L 140.986 92.777 Q 140.107 93.094 139.277 93.094 L 139.277 93.094 L 139.277 93.094 Q 138.594 93.094 138.081 92.752 L 138.081 92.752 L 138.081 92.752 Q 137.568 92.411 137.568 91.581 L 137.568 91.581 L 137.568 91.288 L 137.568 91.288 Q 137.91 87.723 138.154 85.501 L 138.154 85.501 L 138.154 85.501 Q 138.398 83.28 138.545 81.913 L 138.545 81.913 L 138.545 81.913 Q 138.691 80.545 138.789 79.837 L 138.789 79.837 L 138.789 79.837 Q 138.887 79.129 138.984 78.519 L 138.984 78.519 L 138.984 78.519 Q 139.082 77.909 139.155 77.176 L 139.155 77.176 L 139.155 77.176 Q 139.229 76.444 139.375 75.101 L 139.375 75.101 L 139.375 75.101 Q 139.521 73.758 139.741 71.537 L 139.741 71.537 L 139.741 71.537 Q 139.961 69.315 140.303 65.702 L 140.303 65.702 L 140.303 65.702 Q 140.498 63.749 140.718 61.82 L 140.718 61.82 L 140.718 61.82 Q 140.938 59.891 140.938 58.28 L 140.938 58.28 L 140.938 58.28 Q 140.938 56.229 140.718 54.544 L 140.718 54.544 L 140.718 54.544 Q 140.498 52.86 139.937 51.664 L 139.937 51.664 L 139.937 51.664 Q 139.375 50.467 138.398 49.784 L 138.398 49.784 L 138.398 49.784 Q 137.422 49.1 135.908 49.1 L 135.908 49.1 L 135.908 49.1 Q 134.98 49.1 133.491 49.491 L 133.491 49.491 L 133.491 49.491 Q 132.002 49.881 130.488 50.882 L 130.488 50.882 L 130.488 50.882 Q 128.975 51.883 127.754 53.519 L 127.754 53.519 L 127.754 53.519 Q 126.533 55.155 126.191 57.645 L 126.191 57.645 L 126.191 57.84 L 126.191 57.84 Q 125.605 63.407 125.142 67.484 L 125.142 67.484 L 125.142 67.484 Q 124.678 71.561 124.336 74.491 L 124.336 74.491 L 124.336 74.491 Q 123.994 77.42 123.774 79.374 L 123.774 79.374 L 123.774 79.374 Q 123.555 81.327 123.408 82.669 L 123.408 82.669 L 123.408 82.669 Q 123.262 84.012 123.188 84.891 L 123.188 84.891 L 123.188 84.891 Q 123.115 85.77 123.115 86.551 L 123.115 86.551 L 123.115 86.551 Q 123.115 86.942 123.14 87.21 L 123.14 87.21 L 123.14 87.21 Q 123.164 87.479 123.164 87.674 L 123.164 87.674 L 123.164 87.674 Q 123.164 88.065 122.798 88.333 L 122.798 88.333 L 122.798 88.333 Q 122.432 88.602 121.162 88.993 L 121.162 88.993 L 109.688 92.313 L 109.688 92.313 Q 109.15 92.459 108.271 92.777 L 108.271 92.777 L 108.271 92.777 Q 107.393 93.094 106.563 93.094 L 106.563 93.094 L 106.563 93.094 Q 105.879 93.094 105.366 92.752 L 105.366 92.752 L 105.366 92.752 Q 104.854 92.411 104.854 91.581 L 104.854 91.581 L 104.854 91.288 L 104.854 91.288 Q 105.195 87.723 105.415 85.501 L 105.415 85.501 L 105.415 85.501 Q 105.635 83.28 105.806 81.913 L 105.806 81.913 L 105.806 81.913 Q 105.977 80.545 106.074 79.837 L 106.074 79.837 L 106.074 79.837 Q 106.172 79.129 106.245 78.519 L 106.245 78.519 L 106.245 78.519 Q 106.318 77.909 106.416 77.176 L 106.416 77.176 L 106.416 77.176 Q 106.514 76.444 106.636 75.101 L 106.636 75.101 L 106.636 75.101 Q 106.758 73.758 106.978 71.537 L 106.978 71.537 L 106.978 71.537 Q 107.197 69.315 107.539 65.702 L 107.539 65.702 L 107.539 65.702 Q 107.734 63.749 107.954 61.82 L 107.954 61.82 L 107.954 61.82 Q 108.174 59.891 108.174 58.28 L 108.174 58.28 L 108.174 58.28 Q 108.174 56.229 107.979 54.544 L 107.979 54.544 L 107.979 54.544 Q 107.783 52.86 107.271 51.664 L 107.271 51.664 L 107.271 51.664 Q 106.758 50.467 105.879 49.784 L 105.879 49.784 L 105.879 49.784 Q 105 49.1 103.633 49.1 L 103.633 49.1 L 103.633 49.1 Q 102.656 49.1 100.972 49.588 L 100.972 49.588 L 100.972 49.588 Q 99.287 50.077 97.603 51.2 L 97.603 51.2 L 97.603 51.2 Q 95.918 52.323 94.624 54.154 L 94.624 54.154 L 94.624 54.154 Q 93.33 55.985 93.135 58.67 L 93.135 58.67 L 93.135 58.67 Q 92.744 62.284 92.5 64.603 L 92.5 64.603 L 92.5 64.603 Q 92.256 66.922 92.109 68.412 L 92.109 68.412 L 92.109 68.412 Q 91.963 69.901 91.89 70.804 L 91.89 70.804 L 91.89 70.804 Q 91.816 71.708 91.768 72.489 L 91.768 72.489 L 91.768 72.489 Q 91.719 72.684 91.621 73.587 L 91.621 73.587 L 91.621 73.587 Q 91.523 74.491 91.401 75.736 L 91.401 75.736 L 91.401 75.736 Q 91.279 76.981 91.157 78.421 L 91.157 78.421 L 91.157 78.421 Q 91.035 79.862 90.938 81.107 L 90.938 81.107 L 90.938 81.107 Q 90.84 82.352 90.767 83.255 L 90.767 83.255 L 90.767 83.255 Q 90.693 84.159 90.693 84.354 L 90.693 84.354 L 90.693 85.233 L 90.693 85.233 Q 90.693 85.721 90.645 86.063 L 90.645 86.063 L 90.645 86.063 Q 90.596 86.405 90.352 86.698 L 90.352 86.698 L 90.352 86.698 Q 90.107 86.991 89.644 87.235 L 89.644 87.235 L 89.644 87.235 Q 89.18 87.479 88.35 87.772 L 88.35 87.772 L 75.557 92.313 L 75.557 92.313 Q 75.02 92.508 74.141 92.801 L 74.141 92.801 L 74.141 92.801 Q 73.262 93.094 72.432 93.094 L 72.432 93.094 L 72.432 93.094 Q 71.748 93.094 71.235 92.752 L 71.235 92.752 L 71.235 92.752 Q 70.723 92.411 70.723 91.581 L 70.723 91.581 L 75.117 41.776 L 75.117 41.776 Q 75.264 40.165 75.483 39.554 L 75.483 39.554 L 75.483 39.554 Q 75.703 38.944 76.582 38.749 L 76.582 38.749 L 76.582 38.749 Q 81.025 37.87 85.664 36.966 L 85.664 36.966 L 85.664 36.966 Q 90.303 36.063 94.746 34.647 L 94.746 34.647 L 94.746 34.647 Q 95.137 34.647 95.21 34.769 L 95.21 34.769 L 95.21 34.769 Q 95.283 34.891 95.283 35.135 L 95.283 35.135 L 94.648 42.264 L 94.648 42.264 Q 96.455 41.336 98.701 40.238 L 98.701 40.238 L 98.701 40.238 Q 100.947 39.139 103.413 38.211 L 103.413 38.211 L 103.413 38.211 Q 105.879 37.284 108.442 36.673 L 108.442 36.673 L 108.442 36.673 Q 111.006 36.063 113.447 36.063 L 113.447 36.063 L 113.447 36.063 Q 116.816 36.063 119.673 37.601 L 119.673 37.601 L 119.673 37.601 Q 122.529 39.139 124.385 42.704 L 124.385 42.704 L 124.385 42.704 Q 126.582 41.288 129.048 40.067 L 129.048 40.067 L 129.048 40.067 Q 131.514 38.846 134.077 37.967 L 134.077 37.967 L 134.077 37.967 Q 136.641 37.088 139.229 36.6 L 139.229 36.6 L 139.229 36.6 Q 141.816 36.112 144.258 36.112 L 144.258 36.112 L 144.258 36.112 Q 147.334 36.112 150.068 36.991 L 150.068 36.991 L 150.068 36.991 Q 152.803 37.87 154.829 39.872 L 154.829 39.872 L 154.829 39.872 Q 156.855 41.874 158.027 45.072 L 158.027 45.072 L 158.027 45.072 Q 159.199 48.27 159.199 52.86 L 159.199 52.86 L 159.199 52.86 Q 159.199 54.032 159.15 55.277 L 159.15 55.277 L 159.15 55.277 Q 159.102 56.522 158.955 57.84 L 158.955 57.84 L 156.709 78.739 L 156.709 78.739 Q 156.465 80.79 156.416 82.523 L 156.416 82.523 L 156.416 82.523 Q 156.367 84.256 156.367 86.551 L 156.367 86.551 L 156.367 86.551 Q 156.367 86.942 156.392 87.21 L 156.392 87.21 L 156.392 87.21 Q 156.416 87.479 156.416 87.674 L 156.416 87.674 L 156.416 87.674 Q 156.416 88.114 156.05 88.358 L 156.05 88.358 L 156.05 88.358 Q 155.684 88.602 154.414 88.993 L 154.414 88.993 Z  M 188.545 55.741 L 188.398 56.473 L 188.398 56.473 Q 188.105 61.161 187.886 64.09 L 187.886 64.09 L 187.886 64.09 Q 187.666 67.02 187.52 68.851 L 187.52 68.851 L 187.52 68.851 Q 187.373 70.682 187.275 71.732 L 187.275 71.732 L 187.275 71.732 Q 187.178 72.782 187.129 73.709 L 187.129 73.709 L 187.129 73.709 Q 188.252 76.639 190.449 78.47 L 190.449 78.47 L 190.449 78.47 Q 192.646 80.301 195.723 80.301 L 195.723 80.301 L 195.723 80.301 Q 198.408 80.301 200.435 78.617 L 200.435 78.617 L 200.435 78.617 Q 202.461 76.932 203.804 74.247 L 203.804 74.247 L 203.804 74.247 Q 205.146 71.561 205.83 68.241 L 205.83 68.241 L 205.83 68.241 Q 206.514 64.92 206.514 61.649 L 206.514 61.649 L 206.514 61.649 Q 206.514 58.963 206.05 56.668 L 206.05 56.668 L 206.05 56.668 Q 205.586 54.374 204.658 52.689 L 204.658 52.689 L 204.658 52.689 Q 203.73 51.004 202.339 50.052 L 202.339 50.052 L 202.339 50.052 Q 200.947 49.1 199.043 49.1 L 199.043 49.1 L 199.043 49.1 Q 197.48 49.1 195.942 49.71 L 195.942 49.71 L 195.942 49.71 Q 194.404 50.321 192.988 51.273 L 192.988 51.273 L 192.988 51.273 Q 191.572 52.225 190.425 53.421 L 190.425 53.421 L 190.425 53.421 Q 189.277 54.618 188.545 55.741 L 188.545 55.741 Z  M 189.375 42.167 L 189.375 42.167 L 189.375 42.167 Q 193.477 39.383 197.969 37.723 L 197.969 37.723 L 197.969 37.723 Q 202.461 36.063 207.344 36.063 L 207.344 36.063 L 207.344 36.063 Q 211.934 36.063 215.278 37.943 L 215.278 37.943 L 215.278 37.943 Q 218.623 39.823 220.82 43.021 L 220.82 43.021 L 220.82 43.021 Q 223.018 46.219 224.067 50.37 L 224.067 50.37 L 224.067 50.37 Q 225.117 54.52 225.117 59.061 L 225.117 59.061 L 225.117 59.061 Q 225.117 63.016 224.336 67.069 L 224.336 67.069 L 224.336 67.069 Q 223.555 71.122 222.041 74.906 L 222.041 74.906 L 222.041 74.906 Q 220.527 78.69 218.281 82.01 L 218.281 82.01 L 218.281 82.01 Q 216.035 85.331 213.13 87.796 L 213.13 87.796 L 213.13 87.796 Q 210.225 90.262 206.66 91.678 L 206.66 91.678 L 206.66 91.678 Q 203.096 93.094 198.945 93.094 L 198.945 93.094 L 198.945 93.094 Q 195.283 93.094 191.938 91.629 L 191.938 91.629 L 191.938 91.629 Q 188.594 90.165 185.664 87.821 L 185.664 87.821 L 185.664 87.821 Q 185.664 88.065 185.542 89.603 L 185.542 89.603 L 185.542 89.603 Q 185.42 91.141 185.225 93.338 L 185.225 93.338 L 185.225 93.338 Q 185.029 95.536 184.785 98.05 L 184.785 98.05 L 184.785 98.05 Q 184.541 100.565 184.346 102.762 L 184.346 102.762 L 184.346 102.762 Q 184.15 104.959 184.028 106.498 L 184.028 106.498 L 184.028 106.498 Q 183.906 108.036 183.906 108.28 L 183.906 108.28 L 183.906 108.28 Q 183.906 108.67 183.931 108.939 L 183.931 108.939 L 183.931 108.939 Q 183.955 109.208 183.955 109.452 L 183.955 109.452 L 183.955 109.452 Q 183.955 109.842 183.589 110.111 L 183.589 110.111 L 183.589 110.111 Q 183.223 110.379 181.953 110.721 L 181.953 110.721 L 169.111 113.993 L 169.111 113.993 Q 168.574 114.139 167.695 114.457 L 167.695 114.457 L 167.695 114.457 Q 166.816 114.774 165.986 114.774 L 165.986 114.774 L 165.986 114.774 Q 165.303 114.774 164.79 114.432 L 164.79 114.432 L 164.79 114.432 Q 164.277 114.09 164.277 113.163 L 164.277 113.163 L 170.234 41.678 L 170.234 41.678 Q 170.381 40.067 170.601 39.457 L 170.601 39.457 L 170.601 39.457 Q 170.82 38.846 171.699 38.651 L 171.699 38.651 L 171.699 38.651 Q 176.143 37.772 180.83 36.869 L 180.83 36.869 L 180.83 36.869 Q 185.518 35.965 189.961 34.549 L 189.961 34.549 L 189.961 34.549 Q 190.352 34.549 190.425 34.671 L 190.425 34.671 L 190.425 34.671 Q 190.498 34.793 190.498 35.038 L 190.498 35.038 L 190.498 35.038 Q 190.498 35.135 190.474 35.331 L 190.474 35.331 L 190.474 35.331 Q 190.449 35.526 190.327 36.209 L 190.327 36.209 L 190.327 36.209 Q 190.205 36.893 189.985 38.285 L 189.985 38.285 L 189.985 38.285 Q 189.766 39.676 189.375 42.167 Z  M 286.152 35.233 L 281.123 80.741 L 281.123 80.741 Q 281.074 80.936 281.074 81.107 L 281.074 81.107 L 281.074 81.107 Q 281.074 81.278 281.074 81.424 L 281.074 81.424 L 281.074 81.424 Q 281.074 82.645 281.465 83.451 L 281.465 83.451 L 281.465 83.451 Q 281.855 84.256 282.319 84.769 L 282.319 84.769 L 282.319 84.769 Q 282.783 85.282 283.174 85.599 L 283.174 85.599 L 283.174 85.599 Q 283.564 85.917 283.564 86.161 L 283.564 86.161 L 283.564 86.161 Q 283.564 86.844 282.1 87.43 L 282.1 87.43 L 268.965 93.045 L 268.965 93.045 Q 268.916 93.094 268.623 93.094 L 268.623 93.094 L 268.623 93.094 Q 268.232 93.094 267.842 92.411 L 267.842 92.411 L 267.842 92.411 Q 267.451 91.727 267.085 90.677 L 267.085 90.677 L 267.085 90.677 Q 266.719 89.627 266.401 88.431 L 266.401 88.431 L 266.401 88.431 Q 266.084 87.235 265.84 86.209 L 265.84 86.209 L 265.84 86.209 Q 262.764 89.774 259.199 91.434 L 259.199 91.434 L 259.199 91.434 Q 255.635 93.094 252.119 93.094 L 252.119 93.094 L 252.119 93.094 Q 248.018 93.094 244.111 91.288 L 244.111 91.288 L 244.111 91.288 Q 240.205 89.481 237.178 86.136 L 237.178 86.136 L 237.178 86.136 Q 234.15 82.792 232.319 78.055 L 232.319 78.055 L 232.319 78.055 Q 230.488 73.319 230.488 67.411 L 230.488 67.411 L 230.488 67.411 Q 230.488 60.428 232.515 54.667 L 232.515 54.667 L 232.515 54.667 Q 234.541 48.905 238.008 44.754 L 238.008 44.754 L 238.008 44.754 Q 241.475 40.604 246.089 38.333 L 246.089 38.333 L 246.089 38.333 Q 250.703 36.063 255.879 36.063 L 255.879 36.063 L 255.879 36.063 Q 259.541 36.063 262.813 37.552 L 262.813 37.552 L 262.813 37.552 Q 266.084 39.042 269.014 41.385 L 269.014 41.385 L 269.014 41.385 Q 269.307 39.92 269.355 39.042 L 269.355 39.042 L 269.355 39.042 Q 269.404 38.163 269.575 37.674 L 269.575 37.674 L 269.575 37.674 Q 269.746 37.186 270.234 37.015 L 270.234 37.015 L 270.234 37.015 Q 270.723 36.844 271.846 36.747 L 271.846 36.747 L 271.846 36.747 Q 275.361 36.258 278.853 35.843 L 278.853 35.843 L 278.853 35.843 Q 282.344 35.428 286.152 35.233 L 286.152 35.233 Z  M 264.473 76.786 L 266.523 62.333 L 266.523 62.333 Q 267.012 59.549 267.183 57.083 L 267.183 57.083 L 267.183 57.083 Q 267.354 54.618 267.451 52.567 L 267.451 52.567 L 267.451 52.567 Q 266.67 51.981 265.767 51.346 L 265.767 51.346 L 265.767 51.346 Q 264.863 50.711 263.813 50.15 L 263.813 50.15 L 263.813 50.15 Q 262.764 49.588 261.616 49.247 L 261.616 49.247 L 261.616 49.247 Q 260.469 48.905 259.199 48.905 L 259.199 48.905 L 259.199 48.905 Q 256.563 48.905 254.78 50.614 L 254.78 50.614 L 254.78 50.614 Q 252.998 52.323 251.899 54.813 L 251.899 54.813 L 251.899 54.813 Q 250.801 57.303 250.337 60.086 L 250.337 60.086 L 250.337 60.086 Q 249.873 62.87 249.873 65.018 L 249.873 65.018 L 249.873 65.018 Q 249.873 72.733 251.899 76.322 L 251.899 76.322 L 251.899 76.322 Q 253.926 79.911 257.539 79.911 L 257.539 79.911 L 257.539 79.911 Q 259.004 79.911 260.811 79.081 L 260.811 79.081 L 260.811 79.081 Q 262.617 78.25 264.473 76.786 L 264.473 76.786 Z  M 327.607 52.909 L 318.525 52.909 L 318.525 52.909 Q 317.842 58.036 317.231 63.138 L 317.231 63.138 L 317.231 63.138 Q 316.621 68.241 316.475 72.684 L 316.475 72.684 L 316.475 72.684 Q 316.475 74.588 316.768 75.858 L 316.768 75.858 L 316.768 75.858 Q 317.061 77.127 317.622 77.86 L 317.622 77.86 L 317.622 77.86 Q 318.184 78.592 318.965 78.91 L 318.965 78.91 L 318.965 78.91 Q 319.746 79.227 320.723 79.227 L 320.723 79.227 L 320.723 79.227 Q 322.285 79.227 324.141 78.763 L 324.141 78.763 L 324.141 78.763 Q 325.996 78.299 327.852 77.567 L 327.852 77.567 L 327.852 77.567 Q 328.438 77.323 328.853 77.201 L 328.853 77.201 L 328.853 77.201 Q 329.268 77.079 329.561 77.079 L 329.561 77.079 L 329.561 77.079 Q 330.049 77.079 330.22 77.518 L 330.22 77.518 L 330.22 77.518 Q 330.391 77.958 330.562 79.056 L 330.562 79.056 L 330.562 79.056 Q 330.732 80.155 331.074 82.01 L 331.074 82.01 L 331.074 82.01 Q 331.416 83.866 332.197 86.698 L 332.197 86.698 L 332.197 86.698 Q 332.246 86.942 332.271 87.113 L 332.271 87.113 L 332.271 87.113 Q 332.295 87.284 332.295 87.43 L 332.295 87.43 L 332.295 87.43 Q 332.295 88.114 331.782 88.407 L 331.782 88.407 L 331.782 88.407 Q 331.27 88.7 330.098 89.09 L 330.098 89.09 L 330.098 89.09 Q 328.096 89.774 325.874 90.482 L 325.874 90.482 L 325.874 90.482 Q 323.652 91.19 321.479 91.776 L 321.479 91.776 L 321.479 91.776 Q 319.307 92.362 317.305 92.728 L 317.305 92.728 L 317.305 92.728 Q 315.303 93.094 313.789 93.094 L 313.789 93.094 L 313.789 93.094 Q 305.635 93.094 301.899 89.042 L 301.899 89.042 L 301.899 89.042 Q 298.164 84.989 298.164 76.688 L 298.164 76.688 L 298.164 76.688 Q 298.164 75.272 298.262 73.783 L 298.262 73.783 L 298.262 73.783 Q 298.359 72.293 298.506 70.682 L 298.506 70.682 L 298.506 70.682 Q 298.994 65.799 299.36 61.429 L 299.36 61.429 L 299.36 61.429 Q 299.727 57.059 300.117 53.055 L 300.117 53.055 L 294.99 53.055 L 294.99 53.055 Q 292.354 53.055 291.182 52.835 L 291.182 52.835 L 291.182 52.835 Q 290.01 52.616 290.01 51.932 L 290.01 51.932 L 290.01 51.932 Q 290.01 51.737 290.498 50.882 L 290.498 50.882 L 290.498 50.882 Q 290.986 50.028 291.743 48.832 L 291.743 48.832 L 291.743 48.832 Q 292.5 47.635 293.379 46.268 L 293.379 46.268 L 293.379 46.268 Q 294.258 44.901 295.063 43.705 L 295.063 43.705 L 295.063 43.705 Q 295.869 42.508 296.455 41.629 L 296.455 41.629 L 296.455 41.629 Q 297.041 40.75 297.188 40.555 L 297.188 40.555 L 300.654 40.555 L 300.654 40.555 Q 301.094 36.844 301.362 34.33 L 301.362 34.33 L 301.362 34.33 Q 301.631 31.815 301.802 30.155 L 301.802 30.155 L 301.802 30.155 Q 301.973 28.495 302.119 27.591 L 302.119 27.591 L 302.119 27.591 Q 302.266 26.688 302.437 26.249 L 302.437 26.249 L 302.437 26.249 Q 302.607 25.809 302.876 25.687 L 302.876 25.687 L 302.876 25.687 Q 303.145 25.565 303.584 25.467 L 303.584 25.467 L 303.584 25.467 Q 305.781 25.028 307.832 24.662 L 307.832 24.662 L 307.832 24.662 Q 309.883 24.295 311.934 23.905 L 311.934 23.905 L 311.934 23.905 Q 313.984 23.514 316.108 23.001 L 316.108 23.001 L 316.108 23.001 Q 318.232 22.489 320.527 21.805 L 320.527 21.805 L 320.527 21.805 Q 320.674 21.805 320.723 21.781 L 320.723 21.781 L 320.723 21.781 Q 320.771 21.756 320.918 21.756 L 320.918 21.756 L 320.918 21.756 Q 321.504 21.756 321.504 22.147 L 321.504 22.147 L 321.504 22.245 L 321.504 22.245 Q 321.26 24.93 320.747 29.715 L 320.747 29.715 L 320.747 29.715 Q 320.234 34.5 319.6 40.555 L 319.6 40.555 L 332.686 40.555 L 332.686 40.555 Q 333.076 40.555 333.442 40.824 L 333.442 40.824 L 333.442 40.824 Q 333.809 41.092 333.809 41.727 L 333.809 41.727 L 333.809 41.727 Q 333.809 41.971 333.223 43.485 L 333.223 43.485 L 333.223 43.485 Q 332.637 44.999 331.563 47.44 L 331.563 47.44 L 329.805 51.395 L 329.805 51.395 Q 329.463 52.127 329.097 52.469 L 329.097 52.469 L 329.097 52.469 Q 328.73 52.811 327.607 52.909 L 327.607 52.909 Z  M 337.813 91.288 L 343.379 19.559 L 343.379 19.559 Q 343.379 19.266 343.354 19.022 L 343.354 19.022 L 343.354 19.022 Q 343.33 18.778 343.33 18.534 L 343.33 18.534 L 343.33 18.534 Q 343.33 18.094 343.672 17.777 L 343.672 17.777 L 343.672 17.777 Q 344.014 17.459 345.332 17.118 L 345.332 17.118 L 359.053 13.846 L 359.053 13.846 Q 359.59 13.749 360.469 13.407 L 360.469 13.407 L 360.469 13.407 Q 361.348 13.065 362.178 13.065 L 362.178 13.065 L 362.178 13.065 Q 363.887 13.065 363.887 14.627 L 363.887 14.627 L 363.887 14.627 Q 363.887 14.725 363.74 16.629 L 363.74 16.629 L 363.74 16.629 Q 363.594 18.534 363.35 21.366 L 363.35 21.366 L 363.35 21.366 Q 363.105 24.198 362.813 27.542 L 362.813 27.542 L 362.813 27.542 Q 362.52 30.887 362.227 33.915 L 362.227 33.915 L 362.227 33.915 Q 361.934 36.942 361.689 39.212 L 361.689 39.212 L 361.689 39.212 Q 361.445 41.483 361.299 42.167 L 361.299 42.167 L 361.299 42.167 Q 363.594 40.897 366.084 39.774 L 366.084 39.774 L 366.084 39.774 Q 368.574 38.651 371.089 37.821 L 371.089 37.821 L 371.089 37.821 Q 373.604 36.991 376.118 36.527 L 376.118 36.527 L 376.118 36.527 Q 378.633 36.063 380.977 36.063 L 380.977 36.063 L 380.977 36.063 Q 383.955 36.063 386.543 36.917 L 386.543 36.917 L 386.543 36.917 Q 389.131 37.772 391.06 39.75 L 391.06 39.75 L 391.06 39.75 Q 392.988 41.727 394.087 44.925 L 394.087 44.925 L 394.087 44.925 Q 395.186 48.124 395.186 52.762 L 395.186 52.762 L 395.186 52.762 Q 395.186 53.934 395.137 55.179 L 395.137 55.179 L 395.137 55.179 Q 395.088 56.424 394.941 57.743 L 394.941 57.743 L 392.842 77.713 L 392.842 77.713 Q 392.598 79.764 392.549 81.986 L 392.549 81.986 L 392.549 81.986 Q 392.5 84.208 392.5 86.551 L 392.5 86.551 L 392.5 86.551 Q 392.5 86.942 392.524 87.21 L 392.524 87.21 L 392.524 87.21 Q 392.549 87.479 392.549 87.674 L 392.549 87.674 L 392.549 87.674 Q 392.549 88.114 392.183 88.358 L 392.183 88.358 L 392.183 88.358 Q 391.816 88.602 390.547 88.993 L 390.547 88.993 L 378.584 92.313 L 378.584 92.313 Q 378.047 92.459 377.168 92.777 L 377.168 92.777 L 377.168 92.777 Q 376.289 93.094 375.459 93.094 L 375.459 93.094 L 375.459 93.094 Q 374.629 93.094 374.189 92.728 L 374.189 92.728 L 374.189 92.728 Q 373.75 92.362 373.75 91.288 L 373.75 91.288 L 373.75 91.288 Q 374.092 87.625 374.312 85.379 L 374.312 85.379 L 374.312 85.379 Q 374.531 83.133 374.653 81.791 L 374.653 81.791 L 374.653 81.791 Q 374.775 80.448 374.873 79.74 L 374.873 79.74 L 374.873 79.74 Q 374.971 79.032 375.02 78.47 L 375.02 78.47 L 375.02 78.47 Q 375.068 77.909 375.166 77.201 L 375.166 77.201 L 375.166 77.201 Q 375.264 76.493 375.386 75.125 L 375.386 75.125 L 375.386 75.125 Q 375.508 73.758 375.728 71.512 L 375.728 71.512 L 375.728 71.512 Q 375.947 69.266 376.289 65.604 L 376.289 65.604 L 376.289 65.604 Q 376.484 63.651 376.704 61.722 L 376.704 61.722 L 376.704 61.722 Q 376.924 59.793 376.924 58.182 L 376.924 58.182 L 376.924 58.182 Q 376.924 56.131 376.704 54.447 L 376.704 54.447 L 376.704 54.447 Q 376.484 52.762 375.923 51.566 L 375.923 51.566 L 375.923 51.566 Q 375.361 50.37 374.385 49.686 L 374.385 49.686 L 374.385 49.686 Q 373.408 49.002 371.895 49.002 L 371.895 49.002 L 371.895 49.002 Q 370.771 49.002 368.843 49.491 L 368.843 49.491 L 368.843 49.491 Q 366.914 49.979 364.985 51.102 L 364.985 51.102 L 364.985 51.102 Q 363.057 52.225 361.567 54.056 L 361.567 54.056 L 361.567 54.056 Q 360.078 55.887 359.883 58.573 L 359.883 58.573 L 359.883 58.573 Q 359.492 62.333 359.272 64.725 L 359.272 64.725 L 359.272 64.725 Q 359.053 67.118 358.906 68.68 L 358.906 68.68 L 358.906 68.68 Q 358.76 70.243 358.687 71.17 L 358.687 71.17 L 358.687 71.17 Q 358.613 72.098 358.564 72.879 L 358.564 72.879 L 358.564 72.879 Q 358.516 73.124 358.418 74.076 L 358.418 74.076 L 358.418 74.076 Q 358.32 75.028 358.174 76.346 L 358.174 76.346 L 358.174 76.346 Q 358.027 77.665 357.881 79.154 L 357.881 79.154 L 357.881 79.154 Q 357.734 80.643 357.612 81.961 L 357.612 81.961 L 357.612 81.961 Q 357.49 83.28 357.417 84.232 L 357.417 84.232 L 357.417 84.232 Q 357.344 85.184 357.344 85.428 L 357.344 85.428 L 357.344 85.428 Q 357.344 85.819 357.368 86.087 L 357.368 86.087 L 357.368 86.087 Q 357.393 86.356 357.393 86.6 L 357.393 86.6 L 357.393 86.6 Q 357.393 86.991 357.026 87.259 L 357.026 87.259 L 357.026 87.259 Q 356.66 87.528 355.391 87.87 L 355.391 87.87 L 342.646 92.313 L 342.646 92.313 Q 342.109 92.508 341.23 92.801 L 341.23 92.801 L 341.23 92.801 Q 340.352 93.094 339.521 93.094 L 339.521 93.094 L 339.521 93.094 Q 338.789 93.094 338.301 92.679 L 338.301 92.679 L 338.301 92.679 Q 337.813 92.264 337.813 91.288 L 337.813 91.288 Z  M 433.32 88.651 L 422.578 112.821 L 422.578 112.821 Q 422.48 113.016 422.358 113.138 L 422.358 113.138 L 422.358 113.138 Q 422.236 113.26 421.943 113.26 L 421.943 113.26 L 421.943 113.26 Q 421.65 113.26 421.504 113.211 L 421.504 113.211 L 421.504 113.211 Q 419.746 112.577 418.184 112.137 L 418.184 112.137 L 418.184 112.137 Q 416.621 111.698 415.083 111.332 L 415.083 111.332 L 415.083 111.332 Q 413.545 110.965 411.934 110.648 L 411.934 110.648 L 411.934 110.648 Q 410.322 110.331 408.516 109.94 L 408.516 109.94 L 408.516 109.94 Q 408.027 109.842 407.759 109.623 L 407.759 109.623 L 407.759 109.623 Q 407.49 109.403 407.49 108.866 L 407.49 108.866 L 407.49 108.866 Q 407.49 108.719 407.661 108.158 L 407.661 108.158 L 407.661 108.158 Q 407.832 107.596 408.516 105.863 L 408.516 105.863 L 408.516 105.863 Q 409.199 104.129 410.615 100.833 L 410.615 100.833 L 410.615 100.833 Q 412.031 97.538 414.521 91.971 L 414.521 91.971 L 414.521 91.971 Q 413.789 89.53 412.861 86.112 L 412.861 86.112 L 412.861 86.112 Q 411.934 82.694 410.884 78.641 L 410.884 78.641 L 410.884 78.641 Q 409.834 74.588 408.711 70.072 L 408.711 70.072 L 408.711 70.072 Q 407.588 65.555 406.44 60.941 L 406.44 60.941 L 406.44 60.941 Q 405.293 56.327 404.146 51.81 L 404.146 51.81 L 404.146 51.81 Q 402.998 47.293 401.924 43.192 L 401.924 43.192 L 401.924 43.192 Q 401.582 42.411 401.533 41.898 L 401.533 41.898 L 401.533 41.898 Q 401.484 41.385 401.484 41.043 L 401.484 41.043 L 401.484 41.043 Q 401.484 40.36 402.266 40.165 L 402.266 40.165 L 402.266 40.165 Q 406.074 39.334 410.176 38.431 L 410.176 38.431 L 410.176 38.431 Q 414.277 37.528 417.939 36.112 L 417.939 36.112 L 417.939 36.112 Q 418.086 36.063 418.379 36.063 L 418.379 36.063 L 418.379 36.063 Q 419.014 36.063 419.063 36.551 L 419.063 36.551 L 425.02 69.364 L 425.02 69.364 Q 425.215 68.778 425.776 67.24 L 425.776 67.24 L 425.776 67.24 Q 426.338 65.702 427.095 63.553 L 427.095 63.553 L 427.095 63.553 Q 427.852 61.405 428.779 58.817 L 428.779 58.817 L 428.779 58.817 Q 429.707 56.229 430.684 53.543 L 430.684 53.543 L 430.684 53.543 Q 431.66 50.858 432.612 48.197 L 432.612 48.197 L 432.612 48.197 Q 433.564 45.536 434.395 43.241 L 434.395 43.241 L 434.395 43.241 Q 435.225 40.946 435.835 39.188 L 435.835 39.188 L 435.835 39.188 Q 436.445 37.43 436.787 36.551 L 436.787 36.551 L 436.787 36.551 Q 436.982 36.063 437.52 36.063 L 437.52 36.063 L 437.52 36.063 Q 437.666 36.063 437.715 36.087 L 437.715 36.087 L 437.715 36.087 Q 437.764 36.112 437.91 36.112 L 437.91 36.112 L 437.91 36.112 Q 441.572 37.528 445.43 38.431 L 445.43 38.431 L 445.43 38.431 Q 449.287 39.334 453.096 40.165 L 453.096 40.165 L 453.096 40.165 Q 454.023 40.36 454.023 41.239 L 454.023 41.239 L 454.023 41.239 Q 454.023 41.874 453.438 43.192 L 453.438 43.192 L 433.32 88.651 Z " fill="rgb(45,55,72)"/></g></svg>