<svg version="1" xmlns="http://www.w3.org/2000/svg" width="933.333" height="933.333" viewBox="0 0 700.000000 700.000000"><path d="M178.8 43.5c-.2.2-4.3.6-9.3.9-16.5 1.2-24.3 2.7-39 7.1-28.3 8.7-51.9 22.9-73 44-11.1 11.1-12.1 12.3-19.9 22.8C18 144.8 5.4 177.2 1.1 212c-1.5 12.6-.6 42.9 1.8 56.1 7 39.1 25 74.3 52.4 102.6C60 375.5 67.5 383.3 72 388c11 11.4 51.3 53.1 62.3 64.4 4.9 5 18.8 19.4 31 32 12.2 12.6 25.6 26.4 29.7 30.6 6.5 6.8 40.4 41.7 60 62 3.6 3.7 17.3 17.9 30.5 31.6 13.2 13.6 27.5 28.3 31.7 32.5 15.9 15.8 33.1 19.3 51.3 10.4 8.6-4.2 3.2 1 68.5-66.5 4.5-4.7 18.1-18.8 30.3-31.4 12.2-12.5 24.9-25.6 28.2-29 3.3-3.5 16.9-17.5 30.1-31.2 13.3-13.7 28-28.8 32.5-33.6 18.7-19.3 60.1-62 79.6-82 27.3-28.1 41.9-50.9 51.8-81.1 4.8-14.5 4.6-14 7.6-30.2 2.3-12.6 3.2-39.1 1.8-52.5-9-85.6-72.3-155.2-152.9-167.9-17.1-2.7-39.4-3-53.5-.6-1.6.2-4.8.7-7 1.1-2.2.3-6 1-8.5 1.6-2.5.5-5.4 1.2-6.6 1.4-9.8 1.9-33.6 11.5-47.6 19.3-19.3 10.7-30.6 19.9-55.6 45.3l-17.4 17.6-3.7-3.7C312.4 93 300.9 82.9 281 71.2c-13.8-8.2-35.7-17.5-48.5-20.8-1.6-.4-3.4-.8-4-1-.5-.2-2.3-.6-4-.9-1.6-.3-3.6-.8-4.3-1-.7-.2-3.4-.7-6-1-2.6-.4-5.8-.8-7.1-1-1.3-.2-6.3-.7-11-1-4.7-.4-10.5-.8-12.8-1-2.3-.1-4.3-.2-4.5 0z"/></svg>