<svg width="589" height="170" viewBox="0 0 589 170" fill="none" xmlns="http://www.w3.org/2000/svg">
<g clip-path="url(#clip0)">
<path d="M119.81 29.805C115.943 29.805 112.222 30.6267 108.645 32.27C112.705 35.5567 114.735 39.665 114.735 44.595C114.735 49.525 113.43 53.875 110.82 57.645C108.21 61.415 104.923 63.3 100.96 63.3C97.0933 63.3 93.9517 62.0917 91.535 59.675C89.215 57.1617 88.055 53.73 88.055 49.38C88.055 45.03 89.505 40.7767 92.405 36.62C87.8617 36.91 83.995 38.8433 80.805 42.42C77.615 45.9 76.02 50.54 76.02 56.34C76.02 62.14 77.18 67.2633 79.5 71.71C82.7867 71.0333 86.1217 70.695 89.505 70.695C100.428 70.695 105.89 73.9817 105.89 80.555C105.89 83.3583 104.778 85.8717 102.555 88.095C100.428 90.2217 96.8033 91.285 91.68 91.285C86.6533 91.285 81.1433 89.4967 75.15 85.92C69.5433 91.2367 66.74 97.1333 66.74 103.61C66.74 107.863 68.0933 111.392 70.8 114.195C73.5067 116.998 77.18 118.4 81.82 118.4C86.46 118.4 91.2933 116.853 96.32 113.76C101.347 110.667 105.793 106.945 109.66 102.595L114.88 107.235C112.367 110.908 108.887 114.823 104.44 118.98C95.45 127.487 85.4933 131.74 74.57 131.74C67.1267 131.74 60.2633 129.807 53.98 125.94C50.8867 123.91 48.3733 121.107 46.44 117.53C44.5067 113.953 43.54 109.845 43.54 105.205C43.54 92.445 50.4033 82.8267 64.13 76.35C59.2967 70.26 56.88 63.4933 56.88 56.05C56.88 46.8667 60.2633 39.7617 67.03 34.735C73.7967 29.6117 81.7233 27.05 90.81 27.05C94.4833 27.05 97.8183 27.485 100.815 28.355C107.292 23.9083 114.397 21.685 122.13 21.685C125.707 21.685 128.993 22.1683 131.99 23.135C135.083 24.1017 137.307 25.2617 138.66 26.615C138.467 29.805 137.403 32.4633 135.47 34.59L134.455 35.605C131.072 31.7383 126.19 29.805 119.81 29.805ZM106.18 47.06C106.18 42.9033 104.343 39.8583 100.67 37.925C97.77 41.0183 96.32 44.6917 96.32 48.945C96.32 53.1983 97.8183 55.325 100.815 55.325C102.362 55.325 103.618 54.5517 104.585 53.005C105.648 51.3617 106.18 49.38 106.18 47.06ZM98.06 80.99C98.06 80.0233 97.48 79.25 96.32 78.67C95.2567 77.9933 93.6617 77.655 91.535 77.655C89.505 77.655 87.185 78.235 84.575 79.395C87.2817 82.1983 90.1817 83.6 93.275 83.6C96.465 83.6 98.06 82.73 98.06 80.99ZM124.128 130.435H121.373C121.373 125.892 122.727 117.192 125.433 104.335C128.237 91.4783 129.638 84.18 129.638 82.44C129.638 79.25 128.285 75.8667 125.578 72.29L124.273 70.55L124.418 68.665C129.638 67.215 138 66.49 149.503 66.49C150.857 68.3267 151.533 71.3233 151.533 75.48C160.233 69.0033 167.145 65.765 172.268 65.765C178.745 65.765 182.563 69.1 183.723 75.77C186.333 73.6433 189.717 71.4683 193.873 69.245C198.127 66.925 201.897 65.765 205.183 65.765C208.567 65.765 211.37 66.8767 213.593 69.1C215.817 71.2267 216.928 74.2233 216.928 78.09C216.928 81.9567 215.865 88.3367 213.738 97.23C211.612 106.123 210.548 112.117 210.548 115.21C210.548 118.207 210.983 119.705 211.853 119.705C212.433 119.705 214.415 118.787 217.798 116.95L219.393 116.08L222.003 121.155C219.49 123.668 216.058 126.085 211.708 128.405C207.455 130.628 203.685 131.74 200.398 131.74C193.148 131.74 189.523 127.632 189.523 119.415C189.523 116.418 190.538 110.425 192.568 101.435C194.695 92.3483 195.758 86.4517 195.758 83.745C195.758 80.9417 194.937 79.54 193.293 79.54C190.49 79.54 187.3 80.6033 183.723 82.73C183.53 84.6633 182.177 91.2367 179.663 102.45C177.247 113.663 176.038 122.363 176.038 128.55C173.235 129.807 166.662 130.435 156.318 130.435C156.125 129.372 156.028 126.81 156.028 122.75C156.028 118.69 157.14 111.778 159.363 102.015C161.683 92.2517 162.843 86.065 162.843 83.455C162.843 80.845 161.925 79.54 160.088 79.54C157.188 79.54 153.998 80.7 150.518 83.02C150.325 83.89 149.358 88.1433 147.618 95.78C144.138 111.053 142.398 121.928 142.398 128.405C139.015 129.758 132.925 130.435 124.128 130.435ZM222.493 162.48C222.009 161.32 221.768 158.758 221.768 154.795C221.768 150.832 223.653 140.198 227.423 122.895C231.193 105.495 233.078 92.1067 233.078 82.73C233.078 80.8933 232.643 78.96 231.773 76.93C230.903 74.8033 229.984 73.16 229.018 72L227.713 70.405L227.858 68.52C232.401 67.07 240.424 66.345 251.928 66.345C252.991 68.375 253.668 71.2267 253.958 74.9C261.401 68.81 267.588 65.765 272.518 65.765C277.544 65.765 281.556 67.8433 284.553 72C287.646 76.1567 289.193 82.2467 289.193 90.27C289.193 104.287 286.631 114.727 281.508 121.59C276.384 128.357 269.908 131.74 262.078 131.74C258.018 131.74 254.634 131.16 251.928 130L250.478 129.42L251.493 123.765C252.363 123.958 253.378 124.055 254.538 124.055C257.051 124.055 259.226 122.895 261.063 120.575C262.996 118.255 264.446 115.307 265.413 111.73C267.346 104.577 268.313 97.955 268.313 91.865C268.313 83.165 266.524 78.815 262.948 78.815C260.144 78.815 257.148 79.9267 253.958 82.15C253.571 88.9167 251.589 100.758 248.013 117.675C244.436 134.592 242.648 148.222 242.648 158.565C237.428 160.692 230.709 161.997 222.493 162.48ZM339.009 69.97C339.203 69.7767 339.734 68.52 340.604 66.2C345.148 66.2 351.238 67.5533 358.874 70.26C356.458 78.2833 354.524 86.6933 353.074 95.49C351.624 104.19 350.899 110.425 350.899 114.195C350.899 117.868 351.286 119.705 352.059 119.705C352.639 119.705 354.766 118.787 358.439 116.95L360.179 116.08L362.789 121.155C361.919 121.928 360.759 122.895 359.309 124.055C357.956 125.215 355.346 126.81 351.479 128.84C347.613 130.773 344.133 131.74 341.039 131.74C335.046 131.74 331.566 129.033 330.599 123.62C324.413 129.033 318.806 131.74 313.779 131.74C308.849 131.74 304.644 129.807 301.164 125.94C297.781 122.073 296.089 115.983 296.089 107.67C296.089 94.7167 298.748 84.5183 304.064 77.075C309.381 69.535 315.809 65.765 323.349 65.765C328.763 65.765 333.983 67.1667 339.009 69.97ZM322.479 119.415C324.799 119.415 327.409 118.497 330.309 116.66C330.986 103.03 333.258 89.545 337.124 76.205C334.224 74.9483 331.759 74.32 329.729 74.32C326.249 74.32 323.253 77.7517 320.739 84.615C318.323 91.3817 317.114 98.8733 317.114 107.09C317.114 115.307 318.903 119.415 322.479 119.415ZM410.852 67.505C410.659 69.9217 409.837 72.725 408.387 75.915C404.714 75.5283 401.234 75.335 397.947 75.335H395.337C390.891 96.8917 388.667 110.328 388.667 115.645C388.667 118.448 389.247 119.85 390.407 119.85C391.664 119.85 394.902 118.642 400.122 116.225L402.732 121.01C394.129 128.163 386.154 131.74 378.807 131.74C375.424 131.74 372.621 130.677 370.397 128.55C368.271 126.423 367.207 123.62 367.207 120.14C367.207 116.563 367.594 112.552 368.367 108.105C369.237 103.658 370.397 98.245 371.847 91.865C373.297 85.3883 374.361 80.1683 375.037 76.205C371.461 76.495 368.802 76.785 367.062 77.075C366.869 75.915 366.772 74.3683 366.772 72.435C366.772 70.405 366.917 68.7617 367.207 67.505H376.342C377.116 62.285 377.502 57.355 377.502 52.715L377.357 48.22V47.785C384.897 45.175 392.002 43.87 398.672 43.87C399.059 45.8033 399.252 48.22 399.252 51.12C399.252 54.02 398.431 59.4817 396.787 67.505H410.852ZM425.196 34.3C425.196 31.11 424.906 28.8383 424.326 27.485C431.866 24.875 438.971 23.57 445.641 23.57C446.511 24.44 446.946 26.6633 446.946 30.24C446.946 36.62 444.239 51.3133 438.826 74.32C446.656 68.6167 453.519 65.765 459.416 65.765C463.089 65.765 465.844 66.925 467.681 69.245C469.614 71.565 470.581 74.6583 470.581 78.525C470.581 82.295 469.469 88.53 467.246 97.23C465.023 105.833 463.911 111.73 463.911 114.92C463.911 118.11 464.298 119.705 465.071 119.705C465.844 119.705 467.874 118.835 471.161 117.095L472.901 116.225L475.511 121.3C474.641 122.073 473.481 123.04 472.031 124.2C470.581 125.36 467.923 126.907 464.056 128.84C460.189 130.773 456.613 131.74 453.326 131.74C450.136 131.74 447.574 130.725 445.641 128.695C443.708 126.568 442.741 123.765 442.741 120.285C442.741 116.708 443.804 110.28 445.931 101C448.154 91.6233 449.266 85.7267 449.266 83.31C449.266 80.7967 448.251 79.54 446.221 79.54C443.708 79.54 440.566 80.6033 436.796 82.73C431.479 106.123 428.821 121.3 428.821 128.26C424.761 129.807 417.849 130.58 408.086 130.58C407.989 128.937 407.941 127.487 407.941 126.23C407.941 122.073 410.793 107.863 416.496 83.6C422.296 59.3367 425.196 42.9033 425.196 34.3ZM492.779 130.58C484.756 130.58 480.744 126.133 480.744 117.24C480.744 115.113 481.711 108.975 483.644 98.825C485.578 88.675 486.544 80.2167 486.544 73.45C486.544 72 486.351 70.6467 485.964 69.39C491.184 67.36 498.338 66.345 507.424 66.345C507.908 67.6983 508.149 70.0183 508.149 73.305C508.149 76.5917 507.086 83.165 504.959 93.025C502.833 102.885 501.769 109.313 501.769 112.31C501.769 115.307 502.543 116.805 504.089 116.805C508.343 116.805 512.451 115.307 516.414 112.31C516.704 108.733 518.638 94.185 522.214 68.665C525.598 67.3117 531.688 66.635 540.484 66.635H543.239C542.079 71.1783 540.146 82.6817 537.439 101.145C534.829 119.512 532.944 131.16 531.784 136.09C530.624 141.02 529.029 145.37 526.999 149.14C525.066 152.91 522.649 155.713 519.749 157.55C516.946 159.483 514.094 160.788 511.194 161.465C508.294 162.142 504.524 162.48 499.884 162.48C495.341 162.48 490.991 160.982 486.834 157.985C482.774 155.085 480.744 152.572 480.744 150.445C480.744 149.092 482.436 147.013 485.819 144.21C489.299 141.407 492.199 139.667 494.519 138.99C499.449 143.92 503.074 149.285 505.394 155.085C507.908 155.085 510.131 152.088 512.064 146.095C513.998 140.102 515.303 131.305 515.979 119.705C513.659 122.025 510.131 124.442 505.394 126.955C500.658 129.372 496.453 130.58 492.779 130.58Z" fill="#E3402F"/>
</g>
<defs>
<clipPath id="clip0">
<rect width="589" height="170" fill="white"/>
</clipPath>
</defs>
</svg>
